<?xml version="1.0" encoding="UTF-8" standalone="no"?>
<svg
   xmlns:dc="http://purl.org/dc/elements/1.1/"
   xmlns:cc="http://creativecommons.org/ns#"
   xmlns:rdf="http://www.w3.org/1999/02/22-rdf-syntax-ns#"
   xmlns:svg="http://www.w3.org/2000/svg"
   xmlns="http://www.w3.org/2000/svg"
   xmlns:sodipodi="http://sodipodi.sourceforge.net/DTD/sodipodi-0.dtd"
   xmlns:inkscape="http://www.inkscape.org/namespaces/inkscape"
   width="1920px"
   height="1080px"
   viewBox="0 0 1920 1080"
   version="1.1"
   id="SVGRoot"
   inkscape:version="1.0.1 (1.0.1+r75)"
   sodipodi:docname="mobile.svg">
  <defs
     id="defs101">
    <inkscape:path-effect
       effect="fillet_chamfer"
       id="path-effect936"
       is_visible="true"
       lpeversion="1"
       satellites_param="F,0,1,1,0,125.00001,0,1 @ F,0,0,1,0,125.00001,0,1 @ F,0,1,1,0,125.00001,0,1 @ F,0,1,1,0,125.00001,0,1"
       unit="px"
       method="auto"
       mode="F"
       radius="0"
       chamfer_steps="1"
       flexible="false"
       use_knot_distance="true"
       apply_no_radius="true"
       apply_with_radius="true"
       only_selected="false"
       hide_knots="false" />
    <inkscape:path-effect
       effect="fillet_chamfer"
       id="path-effect934"
       is_visible="true"
       lpeversion="1"
       satellites_param="F,0,1,1,0,122.31528,0,1 @ F,0,0,1,0,122.31528,0,1 @ F,0,1,1,0,122.31528,0,1 @ F,0,1,1,0,122.31528,0,1"
       unit="px"
       method="auto"
       mode="F"
       radius="0"
       chamfer_steps="1"
       flexible="false"
       use_knot_distance="true"
       apply_no_radius="true"
       apply_with_radius="true"
       only_selected="false"
       hide_knots="false" />
    <inkscape:path-effect
       effect="fillet_chamfer"
       id="path-effect932"
       is_visible="true"
       lpeversion="1"
       satellites_param="F,0,1,1,0,122.63129,0,1 @ F,0,0,1,0,122.63129,0,1 @ F,0,1,1,0,122.63129,0,1 @ F,0,1,1,0,122.63129,0,1"
       unit="px"
       method="auto"
       mode="F"
       radius="0"
       chamfer_steps="1"
       flexible="false"
       use_knot_distance="true"
       apply_no_radius="true"
       apply_with_radius="true"
       only_selected="false"
       hide_knots="false" />
    <inkscape:path-effect
       effect="fillet_chamfer"
       id="path-effect930"
       is_visible="true"
       lpeversion="1"
       satellites_param="F,0,1,1,0,126.2045,0,1 @ F,0,0,1,0,126.2045,0,1 @ F,0,1,1,0,126.2045,0,1 @ F,0,1,1,0,126.2045,0,1"
       unit="px"
       method="auto"
       mode="F"
       radius="0"
       chamfer_steps="1"
       flexible="false"
       use_knot_distance="true"
       apply_no_radius="true"
       apply_with_radius="true"
       only_selected="false"
       hide_knots="false" />
    <inkscape:path-effect
       effect="fillet_chamfer"
       id="path-effect849"
       is_visible="true"
       lpeversion="1"
       satellites_param="F,0,1,1,0,150.00004,0,1 @ F,0,0,1,0,150.00004,0,1 @ F,0,1,1,0,150.00004,0,1 @ F,0,1,1,0,150.00004,0,1"
       unit="px"
       method="auto"
       mode="F"
       radius="0"
       chamfer_steps="1"
       flexible="false"
       use_knot_distance="true"
       apply_no_radius="true"
       apply_with_radius="true"
       only_selected="false"
       hide_knots="false" />
    <inkscape:path-effect
       effect="fillet_chamfer"
       id="path-effect847"
       is_visible="true"
       lpeversion="1"
       satellites_param="F,0,1,1,0,24.764439,0,1 @ F,0,1,1,0,24.764439,0,1 @ F,0,0,1,0,24.764439,0,1 @ F,0,1,1,0,24.764439,0,1"
       unit="px"
       method="auto"
       mode="F"
       radius="0"
       chamfer_steps="1"
       flexible="false"
       use_knot_distance="true"
       apply_no_radius="true"
       apply_with_radius="true"
       only_selected="false"
       hide_knots="false" />
    <inkscape:path-effect
       effect="fillet_chamfer"
       id="path-effect843"
       is_visible="true"
       lpeversion="1"
       satellites_param="F,0,1,1,0,24.764439,0,1 @ F,0,1,1,0,24.764439,0,1 @ F,0,0,1,0,24.764439,0,1 @ F,0,1,1,0,24.764439,0,1"
       unit="px"
       method="auto"
       mode="F"
       radius="0"
       chamfer_steps="1"
       flexible="false"
       use_knot_distance="true"
       apply_no_radius="true"
       apply_with_radius="true"
       only_selected="false"
       hide_knots="false" />
  </defs>
  <sodipodi:namedview
     id="base"
     pagecolor="#ffffff"
     bordercolor="#666666"
     borderopacity="1.0"
     inkscape:pageopacity="0.0"
     inkscape:pageshadow="2"
     inkscape:zoom="0.125"
     inkscape:cx="1636.2256"
     inkscape:cy="542.85101"
     inkscape:document-units="px"
     inkscape:current-layer="layer1"
     inkscape:document-rotation="0"
     showgrid="false"
     units="px"
     inkscape:window-width="1918"
     inkscape:window-height="1061"
     inkscape:window-x="0"
     inkscape:window-y="0"
     inkscape:window-maximized="0"
     inkscape:showpageshadow="false"
     inkscape:snap-global="true">
    <inkscape:grid
       type="axonomgrid"
       id="grid152"
       units="px"
       spacingy="1" />
  </sodipodi:namedview>
  <metadata
     id="metadata104">
    <rdf:RDF>
      <cc:Work
         rdf:about="">
        <dc:format>image/svg+xml</dc:format>
        <dc:type
           rdf:resource="http://purl.org/dc/dcmitype/StillImage" />
        <dc:title></dc:title>
      </cc:Work>
    </rdf:RDF>
  </metadata>
  <g
     inkscape:label="Layer 1"
     inkscape:groupmode="layer"
     id="layer1">
    <g
       id="g1165"
       transform="matrix(1.0048156,0,0,1.0048156,19.503372,5.8244109)">
      <path
         id="path851"
         style="fill:#cccccc;fill-opacity:1;stroke:none;stroke-width:0.812134px;stroke-linecap:butt;stroke-linejoin:miter;stroke-opacity:1"
         d="M 1218.9937,35.041475 A 210.99867,210.99867 0 0 0 1114.1935,63.309132 L 94.367252,652.10631 A 70.332888,70.332888 0 0 0 65.653848,683.5876 l -6.454193,-11.17794 v 40.6067 a 70.332888,70.332888 0 0 0 35.167597,60.91005 L 551.53048,1037.8699 a 210.99867,210.99867 0 0 0 210.99941,0 L 1782.3562,449.0728 a 70.332884,70.332884 0 0 0 35.1659,-60.91005 70.332884,70.332884 0 0 0 0,-0.0682 v -40.53853 l -35.1659,-60.91004 v 40.6067 L 1325.1929,63.309132 A 210.99867,210.99867 0 0 0 1218.9937,35.041475 Z" />
      <path
         style="fill:#eeeeee;fill-opacity:1;stroke:none;stroke-width:0.812134px;stroke-linecap:butt;stroke-linejoin:miter;stroke-opacity:1"
         d="M 762.52916,997.26317 1782.3559,408.46614 a 70.332884,70.332884 0 0 0 0,-121.82014 L 1325.1923,22.702454 a 210.99867,210.99867 0 0 0 -210.9987,0 L 94.366846,611.49961 a 70.332888,70.332888 0 0 0 0,121.82014 L 551.53048,997.26317 a 210.99867,210.99867 0 0 0 210.99868,0 z"
         id="path841"
         sodipodi:nodetypes="ccccc" />
      <path
         style="fill:#cccccc;stroke:none;stroke-width:0.812134px;stroke-linecap:butt;stroke-linejoin:miter;stroke-opacity:1"
         d="m 322.78303,783.98244 140.99711,81.40472 a 11.611694,11.611694 0 0 1 0,20.11205 l -0.33135,0.19126 a 34.835081,34.835081 0 0 1 -34.83512,0 l -140.9971,-81.40468 a 11.611692,11.611692 0 0 1 0,-20.11204 l 0.33135,-0.19131 a 34.835084,34.835084 0 0 1 34.83511,0 z"
         id="path835" />
      <path
         style="fill:#cccccc;stroke:none;stroke-width:0.812134px;stroke-linecap:butt;stroke-linejoin:miter;stroke-opacity:1"
         d="m 1448.824,134.11896 140.9971,81.40473 a 11.611689,11.611689 0 0 1 0,20.11204 l -0.3314,0.19131 a 34.835088,34.835088 0 0 1 -34.8351,-1e-5 l -140.997,-81.40471 a 11.611706,11.611706 0 0 1 0,-20.11206 l 0.3314,-0.19129 a 34.835055,34.835055 0 0 1 34.835,-1e-5 z"
         id="path845" />
      <path
         style="fill:#848484;fill-opacity:1;stroke:none;stroke-width:0.812134px;stroke-linecap:butt;stroke-linejoin:miter;stroke-opacity:1"
         d="M 129.5333,631.80296 727.3627,976.95988 1747.1894,388.16275 1149.36,43.005772 Z"
         id="path837" />
      <path
         id="path941"
         style="fill:#0089e4;fill-opacity:1;stroke:none;stroke-width:0.506833px;stroke-linecap:butt;stroke-linejoin:miter;stroke-opacity:1"
         d="m 172.60329,109.5223 a 36.577572,36.577572 0 0 0 -0.21286,0 36.577572,36.577572 0 0 0 -21.95816,7.5134 l -18.81519,10.78506 10.70384,-2.18176 a 36.577572,36.577572 0 0 0 -6.25814,20.46041 v 101.36678 a 109.73271,109.73271 0 0 0 54.86672,95.03131 l 230.43896,133.04383 65.83987,95.03131 v 44.34795 l 21.9463,-12.67084 v -76.02408 l 32.91945,19.00625 a 36.577572,36.577572 0 0 0 19.12307,4.89114 l -4.49118,7.7797 21.90667,-12.64807 0.0398,-0.0227 A 36.577572,36.577572 0 0 0 596.94105,513.5549 V 412.1881 A 109.73271,109.73271 0 0 0 542.07432,317.15679 L 190.92966,114.42333 a 36.577572,36.577572 0 0 0 -18.32622,-4.90103 z" />
      <path
         id="path928"
         style="fill:#d0e0f0;fill-opacity:1;stroke:none;stroke-width:0.506833px;stroke-linecap:butt;stroke-linejoin:miter;stroke-opacity:1"
         d="m 150.44413,122.1941 a 36.577572,36.577572 0 0 0 -36.32765,36.57713 V 260.138 a 109.73271,109.73271 0 0 0 54.86672,95.0313 l 230.43897,133.04384 87.78616,126.70841 V 538.8965 l 32.91945,19.00626 A 36.577572,36.577572 0 0 0 574.9945,526.22567 V 424.85892 a 109.73271,109.73271 0 0 0 -54.86672,-95.0313 L 168.9832,127.09412 a 36.577572,36.577572 0 0 0 -18.53907,-4.90002 z" />
      <path
         style="fill:#ffffff;stroke:none;stroke-width:0.506833px;stroke-linecap:butt;stroke-linejoin:miter;stroke-opacity:1"
         d="m 213.40506,203.42445 a 109.73441,109.73441 0 0 1 54.33761,95.33655 36.582663,36.582663 0 0 1 -55.39501,30.76138 109.73441,109.73441 0 0 1 -54.33761,-95.33655 36.582663,36.582663 0 0 1 55.39501,-30.76138 z"
         id="path920" />
      <path
         style="fill:#ffffff;stroke:none;stroke-width:0.506833px;stroke-linecap:butt;stroke-linejoin:miter;stroke-opacity:1"
         d="m 343.51591,278.54398 2.07939,1.20054 a 107.65332,107.65332 0 0 1 53.82662,93.2305 v 2.40108 a 35.884436,35.884436 0 0 1 -53.82662,31.07684 l -2.07939,-1.20054 a 107.65332,107.65332 0 0 1 -53.82669,-93.2305 v -2.40108 a 35.884436,35.884436 0 0 1 53.82669,-31.07684 z"
         id="path922" />
      <path
         style="fill:#ffffff;stroke:none;stroke-width:0.506833px;stroke-linecap:butt;stroke-linejoin:miter;stroke-opacity:1"
         d="m 475.05645,354.48895 2.35682,1.3607 a 107.37589,107.37589 0 0 1 53.68791,92.99025 v 2.72142 a 35.791965,35.791965 0 0 1 -53.68791,30.99675 l -2.35682,-1.36071 A 107.37589,107.37589 0 0 1 421.36846,388.2071 v -2.7214 a 35.791965,35.791965 0 0 1 53.68799,-30.99675 z"
         id="path924-5" />
      <path
         id="path1220"
         style="fill:#18b663;fill-opacity:1;stroke:none;stroke-width:0.506833px;stroke-linecap:butt;stroke-linejoin:miter;stroke-opacity:1"
         d="m 989.1485,55.520595 a 36.577572,36.577572 0 0 0 -0.21276,0 36.577572,36.577572 0 0 0 -21.9582,7.51341 l -18.81524,10.785059 10.70391,-2.181766 a 36.577572,36.577572 0 0 0 -6.25825,20.460417 V 193.46449 a 109.73271,109.73271 0 0 0 54.86674,95.0313 l 230.439,133.04384 65.84,95.03131 v 44.34795 L 1325.7,548.24805 v -76.02408 l 32.9193,19.00625 a 36.577572,36.577572 0 0 0 19.1231,4.89114 l -4.4912,7.77971 21.9067,-12.64808 0.039,-0.0227 a 36.577572,36.577572 0 0 0 18.2885,-31.6771 V 358.1864 a 109.73271,109.73271 0 0 0 -54.8669,-95.03132 L 1007.4747,60.42163 a 36.577572,36.577572 0 0 0 -18.3262,-4.901035 z" />
      <path
         id="path1222"
         style="fill:#d1f1e1;fill-opacity:0.992157;stroke:none;stroke-width:0.506833px;stroke-linecap:butt;stroke-linejoin:miter;stroke-opacity:1"
         d="M 966.98936,68.192404 A 36.577572,36.577572 0 0 0 930.6617,104.76952 v 101.36677 a 109.73271,109.73271 0 0 0 54.86675,95.03131 l 230.43895,133.04384 87.7863,126.70841 V 484.8948 l 32.9194,19.00627 a 36.577572,36.577572 0 0 0 54.8667,-31.6771 V 370.85722 a 109.73271,109.73271 0 0 0 -54.8667,-95.0313 L 985.52845,73.092423 a 36.577572,36.577572 0 0 0 -18.53909,-4.900019 z" />
      <path
         style="fill:#ffffff;stroke:none;stroke-width:0.506833px;stroke-linecap:butt;stroke-linejoin:miter;stroke-opacity:1"
         d="m 1029.9504,149.42273 a 109.73441,109.73441 0 0 1 54.3375,95.33656 36.582663,36.582663 0 0 1 -55.395,30.76138 109.73441,109.73441 0 0 1 -54.33755,-95.33655 36.582663,36.582663 0 0 1 55.39505,-30.76139 z"
         id="path1224" />
      <path
         style="fill:#ffffff;stroke:none;stroke-width:0.506833px;stroke-linecap:butt;stroke-linejoin:miter;stroke-opacity:1"
         d="m 1160.0612,224.54228 2.0794,1.20054 a 107.65332,107.65332 0 0 1 53.8266,93.2305 v 2.40108 a 35.884436,35.884436 0 0 1 -53.8266,31.07684 l -2.0794,-1.20054 a 107.65332,107.65332 0 0 1 -53.8266,-93.2305 v -2.40109 a 35.884436,35.884436 0 0 1 53.8266,-31.07683 z"
         id="path1226" />
      <path
         style="fill:#ffffff;stroke:none;stroke-width:0.506833px;stroke-linecap:butt;stroke-linejoin:miter;stroke-opacity:1"
         d="m 1291.6017,300.48724 2.3568,1.36071 a 107.37589,107.37589 0 0 1 53.688,92.99026 v 2.7214 a 35.791965,35.791965 0 0 1 -53.688,30.99676 l -2.3568,-1.36071 a 107.37589,107.37589 0 0 1 -53.688,-92.99025 V 331.484 a 35.791965,35.791965 0 0 1 53.688,-30.99676 z"
         id="path1228" />
    </g>
  </g>
</svg>
