<?xml version="1.0" encoding="UTF-8" standalone="no"?>
<svg
   xmlns:dc="http://purl.org/dc/elements/1.1/"
   xmlns:cc="http://creativecommons.org/ns#"
   xmlns:rdf="http://www.w3.org/1999/02/22-rdf-syntax-ns#"
   xmlns:svg="http://www.w3.org/2000/svg"
   xmlns="http://www.w3.org/2000/svg"
   xmlns:sodipodi="http://sodipodi.sourceforge.net/DTD/sodipodi-0.dtd"
   xmlns:inkscape="http://www.inkscape.org/namespaces/inkscape"
   width="1920px"
   height="1080px"
   viewBox="0 0 1920 1080"
   version="1.1"
   id="SVGRoot"
   inkscape:version="1.0.1 (1.0.1+r75)"
   sodipodi:docname="ranking.svg">
  <defs
     id="defs101" />
  <sodipodi:namedview
     id="base"
     pagecolor="#ffffff"
     bordercolor="#666666"
     borderopacity="1.0"
     inkscape:pageopacity="0.0"
     inkscape:pageshadow="2"
     inkscape:zoom="0.25"
     inkscape:cx="639.40839"
     inkscape:cy="585.42796"
     inkscape:document-units="px"
     inkscape:current-layer="layer1"
     inkscape:document-rotation="0"
     showgrid="false"
     units="px"
     inkscape:window-width="1918"
     inkscape:window-height="1061"
     inkscape:window-x="0"
     inkscape:window-y="0"
     inkscape:window-maximized="0"
     inkscape:showpageshadow="false"
     inkscape:snap-global="true">
    <inkscape:grid
       type="axonomgrid"
       id="grid152"
       units="px"
       spacingy="1" />
  </sodipodi:namedview>
  <metadata
     id="metadata104">
    <rdf:RDF>
      <cc:Work
         rdf:about="">
        <dc:format>image/svg+xml</dc:format>
        <dc:type
           rdf:resource="http://purl.org/dc/dcmitype/StillImage" />
        <dc:title />
      </cc:Work>
    </rdf:RDF>
  </metadata>
  <g
     inkscape:label="Layer 1"
     inkscape:groupmode="layer"
     id="layer1">
    <rect
       style="fill:#d0f0e0;fill-opacity:0.992157;stroke:#d0f0e0;stroke-width:0;stroke-miterlimit:4;stroke-dasharray:none;stroke-opacity:1"
       id="rect1002"
       width="324.76883"
       height="170"
       x="1424.6025"
       y="800" />
    <rect
       style="fill:#d0f0e0;fill-opacity:0.992157;stroke:#d0f0e0;stroke-width:0;stroke-miterlimit:4;stroke-dasharray:none;stroke-opacity:1"
       id="rect1000"
       width="324.76883"
       height="170"
       x="997.46594"
       y="800" />
    <rect
       style="fill:#d0f0e0;fill-opacity:0.992157;stroke:#d0f0e0;stroke-width:0;stroke-miterlimit:4;stroke-dasharray:none;stroke-opacity:1"
       id="rect998"
       width="324.76883"
       height="170"
       x="570.22675"
       y="800" />
    <rect
       style="fill:#d0f0e0;fill-opacity:0.992157;stroke:#d0f0e0;stroke-width:0;stroke-miterlimit:4;stroke-dasharray:none;stroke-opacity:1"
       id="rect910"
       width="324.76883"
       height="170"
       x="142.88487"
       y="800" />
    <rect
       style="opacity:1;fill:#0089e4;fill-opacity:1"
       id="rect1407"
       width="1905.2559"
       height="60"
       x="0"
       y="0" />
    <rect
       style="opacity:1;fill:#eeeeee;fill-opacity:1"
       id="rect1426"
       width="1905.2559"
       height="60"
       x="0"
       y="1020" />
    <rect
       style="opacity:1;fill:#eeeeee;fill-opacity:1"
       id="rect1428"
       width="1905.2559"
       height="60"
       x="0"
       y="60" />
    <rect
       style="opacity:1;fill:#eeeeee;fill-opacity:1"
       id="rect1430"
       width="1905.2559"
       height="60"
       x="0"
       y="680" />
    <rect
       style="opacity:1;fill:#eeeeee;fill-opacity:1;stroke-width:0.707853"
       id="rect1432"
       width="954.64099"
       height="60"
       x="-1074.641"
       y="0"
       transform="rotate(-90)" />
    <rect
       style="opacity:1;fill:#eeeeee;fill-opacity:1;stroke-width:0.707853"
       id="rect1434"
       width="954.64099"
       height="60"
       x="-1074.641"
       y="1845.2559"
       transform="rotate(-90)" />
    <circle
       style="opacity:1;fill:#eeeeee;fill-opacity:1"
       id="path1440"
       cx="30"
       cy="30"
       r="14.264428" />
    <circle
       style="opacity:1;fill:#eeeeee;fill-opacity:1"
       id="circle1442"
       cx="70.670502"
       cy="30"
       r="14.264428" />
    <circle
       style="opacity:1;fill:#eeeeee;fill-opacity:1"
       id="circle1444"
       cx="111.341"
       cy="30"
       r="14.264428" />
    <circle
       style="opacity:1;fill:#dbe3e2;fill-opacity:0"
       id="circle1448"
       cx="454.63269"
       cy="320.13275"
       r="177.51289" />
    <circle
       style="opacity:1;fill:#000000;fill-opacity:0"
       id="circle1450"
       cx="454.63269"
       cy="320.13275"
       r="177.51289" />
    <g
       id="g1470"
       transform="translate(-69.281986)">
      <path
         id="path1446"
         style="opacity:1;fill:#18b663;fill-opacity:1"
         d="M 381.05118,180 A 177.51289,177.51289 0 0 0 203.53751,357.51172 177.51289,177.51289 0 0 0 381.05118,535.02539 177.51289,177.51289 0 0 0 558.56485,357.51172 177.51289,177.51289 0 0 0 381.05118,180 Z m 0,18.54492 a 158.96732,158.96732 0 0 1 158.9668,158.9668 158.96732,158.96732 0 0 1 -158.9668,158.96875 158.96732,158.96732 0 0 1 -158.9668,-158.96875 158.96732,158.96732 0 0 1 158.9668,-158.9668 z" />
      <text
         xml:space="preserve"
         style="font-size:130.817px;line-height:1.25;font-family:sans-serif;fill:#18b663;fill-opacity:0.992157;stroke-width:0.681339"
         x="253.3002"
         y="405.13187"
         id="text1459"><tspan
           sodipodi:role="line"
           id="tspan1457"
           x="253.3002"
           y="405.13187"
           style="stroke-width:0.681339">100</tspan></text>
      <text
         xml:space="preserve"
         style="font-size:130.817px;line-height:1.25;font-family:sans-serif;fill:#18b663;fill-opacity:0.992157;stroke-width:0.681339"
         x="253.3002"
         y="405.13187"
         id="text1463"><tspan
           sodipodi:role="line"
           id="tspan1461"
           x="253.3002"
           y="405.13187"
           style="stroke-width:0.681339">100</tspan></text>
    </g>
    <g
       id="g1482"
       transform="translate(357.95718)">
      <path
         id="path1472"
         style="opacity:1;fill:#18b663;fill-opacity:1"
         d="M 381.05118,180 A 177.51289,177.51289 0 0 0 203.53751,357.51172 177.51289,177.51289 0 0 0 381.05118,535.02539 177.51289,177.51289 0 0 0 558.56485,357.51172 177.51289,177.51289 0 0 0 381.05118,180 Z m 0,18.54492 a 158.96732,158.96732 0 0 1 158.9668,158.9668 158.96732,158.96732 0 0 1 -158.9668,158.96875 158.96732,158.96732 0 0 1 -158.9668,-158.96875 158.96732,158.96732 0 0 1 158.9668,-158.9668 z" />
      <text
         xml:space="preserve"
         style="font-size:130.817px;line-height:1.25;font-family:sans-serif;fill:#18b663;fill-opacity:0.992157;stroke-width:0.681339"
         x="253.3002"
         y="405.13187"
         id="text1476"><tspan
           sodipodi:role="line"
           id="tspan1474"
           x="253.3002"
           y="405.13187"
           style="stroke-width:0.681339">100</tspan></text>
      <text
         xml:space="preserve"
         style="font-size:130.817px;line-height:1.25;font-family:sans-serif;fill:#18b663;fill-opacity:0.992157;stroke-width:0.681339"
         x="253.3002"
         y="405.13187"
         id="text1480"><tspan
           sodipodi:role="line"
           id="tspan1478"
           x="253.3002"
           y="405.13187"
           style="stroke-width:0.681339">100</tspan></text>
    </g>
    <g
       id="g1494"
       transform="translate(785.19638)">
      <path
         id="path1484"
         style="opacity:1;fill:#18b663;fill-opacity:1"
         d="M 381.05118,180 A 177.51289,177.51289 0 0 0 203.53751,357.51172 177.51289,177.51289 0 0 0 381.05118,535.02539 177.51289,177.51289 0 0 0 558.56485,357.51172 177.51289,177.51289 0 0 0 381.05118,180 Z m 0,18.54492 a 158.96732,158.96732 0 0 1 158.9668,158.9668 158.96732,158.96732 0 0 1 -158.9668,158.96875 158.96732,158.96732 0 0 1 -158.9668,-158.96875 158.96732,158.96732 0 0 1 158.9668,-158.9668 z" />
      <text
         xml:space="preserve"
         style="font-size:130.817px;line-height:1.25;font-family:sans-serif;fill:#18b663;fill-opacity:0.992157;stroke-width:0.681339"
         x="253.3002"
         y="405.13187"
         id="text1488"><tspan
           sodipodi:role="line"
           id="tspan1486"
           x="253.3002"
           y="405.13187"
           style="stroke-width:0.681339">100</tspan></text>
      <text
         xml:space="preserve"
         style="font-size:130.817px;line-height:1.25;font-family:sans-serif;fill:#18b663;fill-opacity:0.992157;stroke-width:0.681339"
         x="253.3002"
         y="405.13187"
         id="text1492"><tspan
           sodipodi:role="line"
           id="tspan1490"
           x="253.3002"
           y="405.13187"
           style="stroke-width:0.681339">100</tspan></text>
    </g>
    <g
       id="g1506"
       transform="translate(1212.4355,1.45508)">
      <path
         id="path1496"
         style="opacity:1;fill:#18b663;fill-opacity:1"
         d="M 381.05118,180 A 177.51289,177.51289 0 0 0 203.53751,357.51172 177.51289,177.51289 0 0 0 381.05118,535.02539 177.51289,177.51289 0 0 0 558.56485,357.51172 177.51289,177.51289 0 0 0 381.05118,180 Z m 0,18.54492 a 158.96732,158.96732 0 0 1 158.9668,158.9668 158.96732,158.96732 0 0 1 -158.9668,158.96875 158.96732,158.96732 0 0 1 -158.9668,-158.96875 158.96732,158.96732 0 0 1 158.9668,-158.9668 z" />
      <text
         xml:space="preserve"
         style="font-size:130.817px;line-height:1.25;font-family:sans-serif;fill:#18b663;fill-opacity:0.992157;stroke-width:0.681339"
         x="253.3002"
         y="405.13187"
         id="text1500"><tspan
           sodipodi:role="line"
           id="tspan1498"
           x="253.3002"
           y="405.13187"
           style="stroke-width:0.681339">100</tspan></text>
      <text
         xml:space="preserve"
         style="font-size:130.817px;line-height:1.25;font-family:sans-serif;fill:#18b663;fill-opacity:0.992157;stroke-width:0.681339"
         x="253.3002"
         y="405.13187"
         id="text1504"><tspan
           sodipodi:role="line"
           id="tspan1502"
           x="253.3002"
           y="405.13187"
           style="stroke-width:0.681339">100</tspan></text>
    </g>
    <text
       xml:space="preserve"
       style="font-size:53.3333px;line-height:1.25;font-family:sans-serif"
       x="141.4567"
       y="630.80017"
       id="text1510"><tspan
         sodipodi:role="line"
         id="tspan1508"
         x="141.4567"
         y="630.80017">Performance</tspan></text>
    <text
       xml:space="preserve"
       style="font-size:53.3333px;line-height:1.25;font-family:sans-serif"
       x="575.47974"
       y="625.63092"
       id="text1514"><tspan
         sodipodi:role="line"
         id="tspan1512"
         x="575.47974"
         y="625.63092">Accessibility</tspan></text>
    <text
       xml:space="preserve"
       style="font-size:53.3333px;line-height:1.25;font-family:sans-serif"
       x="976.87256"
       y="630.80017"
       id="text1518"><tspan
         sodipodi:role="line"
         id="tspan1516"
         x="976.87256"
         y="630.80017">Best Practices</tspan></text>
    <text
       xml:space="preserve"
       style="font-size:53.3333px;line-height:1.25;font-family:sans-serif"
       x="1538.4346"
       y="630.33142"
       id="text1522"><tspan
         sodipodi:role="line"
         id="tspan1520"
         x="1538.4346"
         y="630.33142">SEO</tspan></text>
    <g
       id="g960"
       transform="translate(-30.217514)">
      <circle
         style="fill:#18b663;fill-opacity:1;stroke:#d0f0e0;stroke-width:0;stroke-miterlimit:4;stroke-dasharray:none;stroke-opacity:1"
         id="path924"
         cx="497.77795"
         cy="800.13727"
         r="12.990381" />
      <g
         id="g930">
        <path
           style="fill:#17b663;fill-opacity:0.992157;stroke:#18b663;stroke-width:5;stroke-linecap:butt;stroke-linejoin:miter;stroke-miterlimit:4;stroke-dasharray:none;stroke-opacity:1"
           d="m 173.20508,800 h 311.76915 v 0"
           id="path880" />
        <circle
           style="fill:#ffffff;fill-opacity:1;stroke:#d0f0e0;stroke-width:0;stroke-miterlimit:4;stroke-dasharray:none;stroke-opacity:1"
           id="circle926"
           cx="497.77795"
           cy="800.13727"
           r="8.6350956" />
      </g>
    </g>
    <g
       id="g970"
       transform="translate(397.02165)">
      <circle
         style="fill:#18b663;fill-opacity:1;stroke:#d0f0e0;stroke-width:0;stroke-miterlimit:4;stroke-dasharray:none;stroke-opacity:1"
         id="circle962"
         cx="497.77795"
         cy="800.13727"
         r="12.990381" />
      <g
         id="g968">
        <path
           style="fill:#17b663;fill-opacity:0.992157;stroke:#18b663;stroke-width:5;stroke-linecap:butt;stroke-linejoin:miter;stroke-miterlimit:4;stroke-dasharray:none;stroke-opacity:1"
           d="m 173.20508,800 h 311.76915 v 0"
           id="path964" />
        <circle
           style="fill:#ffffff;fill-opacity:1;stroke:#d0f0e0;stroke-width:0;stroke-miterlimit:4;stroke-dasharray:none;stroke-opacity:1"
           id="circle966"
           cx="497.77795"
           cy="800.13727"
           r="8.6350956" />
      </g>
    </g>
    <g
       id="g980"
       transform="translate(824.26085)">
      <circle
         style="fill:#18b663;fill-opacity:1;stroke:#d0f0e0;stroke-width:0;stroke-miterlimit:4;stroke-dasharray:none;stroke-opacity:1"
         id="circle972"
         cx="497.77795"
         cy="800.13727"
         r="12.990381" />
      <g
         id="g978">
        <path
           style="fill:#17b663;fill-opacity:0.992157;stroke:#18b663;stroke-width:5;stroke-linecap:butt;stroke-linejoin:miter;stroke-miterlimit:4;stroke-dasharray:none;stroke-opacity:1"
           d="m 173.20508,800 h 311.76915 v 0"
           id="path974" />
        <circle
           style="fill:#ffffff;fill-opacity:1;stroke:#d0f0e0;stroke-width:0;stroke-miterlimit:4;stroke-dasharray:none;stroke-opacity:1"
           id="circle976"
           cx="497.77795"
           cy="800.13727"
           r="8.6350956" />
      </g>
    </g>
    <g
       id="g990"
       transform="translate(1251.5)">
      <circle
         style="fill:#18b663;fill-opacity:1;stroke:#d0f0e0;stroke-width:0;stroke-miterlimit:4;stroke-dasharray:none;stroke-opacity:1"
         id="circle982"
         cx="497.77795"
         cy="800.13727"
         r="12.990381" />
      <g
         id="g988">
        <path
           style="fill:#17b663;fill-opacity:0.992157;stroke:#18b663;stroke-width:5;stroke-linecap:butt;stroke-linejoin:miter;stroke-miterlimit:4;stroke-dasharray:none;stroke-opacity:1"
           d="m 173.20508,800 h 311.76915 v 0"
           id="path984" />
        <circle
           style="fill:#ffffff;fill-opacity:1;stroke:#d0f0e0;stroke-width:0;stroke-miterlimit:4;stroke-dasharray:none;stroke-opacity:1"
           id="circle986"
           cx="497.77795"
           cy="800.13727"
           r="8.6350956" />
      </g>
    </g>
  </g>
</svg>
