<?xml version="1.0" encoding="UTF-8" standalone="no"?>
<svg
   xmlns:dc="http://purl.org/dc/elements/1.1/"
   xmlns:cc="http://creativecommons.org/ns#"
   xmlns:rdf="http://www.w3.org/1999/02/22-rdf-syntax-ns#"
   xmlns:svg="http://www.w3.org/2000/svg"
   xmlns="http://www.w3.org/2000/svg"
   xmlns:sodipodi="http://sodipodi.sourceforge.net/DTD/sodipodi-0.dtd"
   xmlns:inkscape="http://www.inkscape.org/namespaces/inkscape"
   version="1.1"
   id="Ebene_1"
   x="0"
   y="0"
   viewBox="0 0 1200 1200"
   xml:space="preserve"
   enable-background="new 0 0 1200 1200"
   sodipodi:docname="gatsby-white.svg"
   inkscape:version="0.92.4 (5da689c313, 2019-01-14)"><metadata
     id="metadata11"><rdf:RDF><cc:Work
         rdf:about=""><dc:format>image/svg+xml</dc:format><dc:type
           rdf:resource="http://purl.org/dc/dcmitype/StillImage" /><dc:title></dc:title></cc:Work></rdf:RDF></metadata><defs
     id="defs9"><filter
       style="color-interpolation-filters:sRGB;"
       inkscape:label="Fade to Black or White"
       id="filter823"><feColorMatrix
         values="0 0 0 0 1 0 0 0 0 1 0 0 0 0 1 0 0 0 1 0"
         id="feColorMatrix821" /></filter></defs><sodipodi:namedview
     pagecolor="#ffffff"
     bordercolor="#666666"
     borderopacity="1"
     objecttolerance="10"
     gridtolerance="10"
     guidetolerance="10"
     inkscape:pageopacity="0"
     inkscape:pageshadow="2"
     inkscape:window-width="699"
     inkscape:window-height="488"
     id="namedview7"
     showgrid="false"
     inkscape:pagecheckerboard="true"
     inkscape:zoom="0.19666667"
     inkscape:cx="600"
     inkscape:cy="600"
     inkscape:window-x="41"
     inkscape:window-y="0"
     inkscape:window-maximized="0"
     inkscape:current-layer="Ebene_1" /><style
     type="text/css"
     id="style2">.st0{fill:#639}</style><g
     id="g819"
     style="filter:url(#filter823)"><path
       id="path4"
       d="M600,0C268.6,0,0,268.6,0,600s268.6,600,600,600s600-268.6,600-600S931.4,0,600,0z M266.6,933.3 C176.1,842.8,131,724.6,129.6,606L594,1070.4C475.4,1069,357.2,1023.9,266.6,933.3z M704.3,1059.4L140.6,495.7 c47.5-210.1,235-367.1,459.4-367.1c156.9,0,295.5,77,381.2,194.9L915.6,379C845.8,279.5,730.5,214.3,600,214.3 c-167.7,0-310.3,107.7-363.3,257.5l491.6,491.6c123.4-43.7,218-148.2,247.6-277.6H771.4V600h300 C1071.4,824.5,914.4,1011.9,704.3,1059.4z"
       class="st0" /></g></svg>